<svg version="1" xmlns="http://www.w3.org/2000/svg" width="264" height="264" viewBox="0 0 198.000000 198.000000"><path d="M167.4 38c0 1 .2 1.7.4 1.5.7-.6 4.2 1.4 4.2 2.4 0 1.4-5.8 1-7.1-.5-.8-1-2.8-1.4-6-1.3-5.4.3-5.4.1-.3 10.1 1.5 2.9 4.2 9 5.9 13.5l3.1 8.3 4.1-4.3c4.6-4.6 6.3-8.2 6.3-13-.1-4.3-3.1-10.7-7.2-15.1-2.8-2.9-3.4-3.2-3.4-1.6zm6.4 7.5c-.3.3-.9-.2-1.2-1.2-.6-1.4-.5-1.5.5-.6.7.7 1 1.5.7 1.8zM28.7 43.8c-4.8 5.3-6.1 15.4-2.6 21.2 2.4 4 8.9 10.2 10.2 9.7.5-.1 2.4-4.1 4.1-8.7 1.8-4.7 4.5-11 5.9-14.1 3.1-6.5 3.3-7.5 1.1-8.3-4.8-1.8-9 .3-13 6.6-1.4 2.2-2.8 3.7-3.2 3.3-.4-.3-.2-.9.4-1.3 2-1.3 2-3.6.1-5.5-1-1-1.6-2.5-1.3-3.3.7-1.9.2-1.8-1.7.4zm1.9 2.9c.7 1 1.3 2.2 1.4 2.8 0 .5-.5.3-1-.5-.7-1.2-1.1-1-2 1-1 2.3-1 2.3-.6.2.2-1.2 0-2.2-.5-2.2-.4 0-.6-.7-.3-1.5.8-1.9 1.4-1.9 3 .2zM61.1 59.7c-2.5 1-5 3.6-4.4 4.6.3.6.1.7-.6.3-2.4-1.5-2.2 2.5.3 6.8 2.8 4.8 6.3 6.6 12.5 6.6 7.4 0 14.2-6.4 11.5-10.8-.6-.9-3.2-3.2-5.8-5-4.7-3.1-9.6-4-13.5-2.5zm12.7 7c.5 1.7-2.6 2.9-4 1.5-.6-.6-.7-1.5-.3-2.2.9-1.4 3.7-.9 4.3.7zM127 61c-8 5-9.8 8.6-6.2 12.7 2.1 2.4 7.3 4.3 11.7 4.3 4.2 0 9.5-3.6 12-8.3l2-3.7-3.2-3.1c-4.2-4.3-11.1-5-16.3-1.9zm12.8 4.7c-.2 1-1 1.8-1.8 1.8s-1.6-.8-1.8-1.8c-.2-1.2.3-1.7 1.8-1.7s2 .5 1.8 1.7zM92.3 79c-4.4 1-6.3 2.8-6.3 5.8 0 5 8.6 13.2 13.9 13.2 1.5 0 4.1-1.7 7.2-4.9 7.1-7 6.5-11.7-1.9-14.1-4.2-1.1-8.2-1.1-12.9 0zm15.2 5c0 .8-1 1.6-2.2 1.8-1.8.3-2.3-.2-2.3-1.8s.5-2.1 2.3-1.8c1.2.2 2.2 1 2.2 1.8z"/><path d="M141.7 84.6c-.3.4-.1 1.6.5 2.7.9 1.8.6 2.5-2.8 5.5-14.9 12.8-43.6 16-66.4 7.3-3-1.2-6.6-3-8-4.1-2.5-1.9-2.5-1.9-.5-3.4 2.8-2 1.1-3.2-1.9-1.3-2.7 1.8-5.1 7.3-3.5 8.3.6.3 1.3-.4 1.6-1.5.3-1.2.8-2 1.2-1.9.3.2 3 1.6 5.9 3.1 12.9 6.8 35 9.1 50.7 5.3 7.4-1.8 18.3-7.2 22.5-11.2 1.8-1.6 3.2-2.2 4.9-1.7 2.1.5 2.2.4 1.2-1.3-2-3.6-4.7-6.5-5.4-5.8zM65 117.1c0 .5.4.9.9.9s1.2 1.1 1.5 2.4c.5 2.2 1 2.3 8.3 2.3 4.3 0 5.9-.2 3.6-.4-2.4-.2-4.4-1-4.7-1.9-.4-1.1.3-1.3 3.7-1 2.6.3 2.1.1-1.3-.5-3-.5-7-1.4-8.7-1.9-2-.5-3.3-.4-3.3.1zm7 3.1c0 .4-.7.8-1.5.8s-1.5-.4-1.5-.8c0-.5.7-.9 1.5-.9s1.5.4 1.5.9zM60.3 159.2c-1.5 2-2.5 3.8-2 3.8.3 0 1.2-1.1 2.1-2.5 1.7-2.6 1.6-3.5-.1-1.3zM56.6 164.8c-.3.5.1.9.9.9s1.2-.4.9-.9c-.3-.4-.7-.8-.9-.8-.2 0-.6.4-.9.8zM151.7 166.3c-.3.8 0 2.3.8 3.3.7 1.1 1.2 4.1 1 7.3-.1 2.9.1 4.8.5 4.1.5-.8.9-.7 1.4.5.9 2.3.8 2.7-.5 1.9-.8-.5-1 1.4-.6 6.7.4 4.1.6 7.5.7 7.6 0 .2 1.1.3 2.5.3 2.5 0 2.6-.1 1.9-5.3-.9-7.6-3.1-17.8-4.5-21.2-.7-1.7-1.3-3.6-1.5-4.3-.4-2.1-1.1-2.4-1.7-.9zm3 9.9c-.3.8-.6.5-.6-.6-.1-1.1.2-1.7.5-1.3.3.3.4 1.2.1 1.9zm1 12c-.3.8-.6.5-.6-.6-.1-1.1.2-1.7.5-1.3.3.3.4 1.2.1 1.9zm1 8c-.3.8-.6.5-.6-.6-.1-1.1.2-1.7.5-1.3.3.3.4 1.2.1 1.9z"/></svg>